<?xml version="1.0" encoding="UTF-8"?>
<svg version="1.1" xmlns="http://www.w3.org/2000/svg" width="490" height="490">
<path d="M0 0 C161.7 0 323.4 0 490 0 C490 161.7 490 323.4 490 490 C328.3 490 166.6 490 0 490 C0 328.3 0 166.6 0 0 Z " fill="#191919" transform="translate(0,0)"/>
<path d="M0 0 C99 0 198 0 300 0 C300 66 300 132 300 200 C267 200 234 200 200 200 C200 167 200 134 200 100 C134 100 68 100 0 100 C0 67 0 34 0 0 Z " fill="#007FB1" transform="translate(96,96)"/>
<path d="M0 0 C33 0 66 0 100 0 C100 33 100 66 100 100 C67 100 34 100 0 100 C0 67 0 34 0 0 Z " fill="#007FB2" transform="translate(196,296)"/>
</svg>
